<svg width="132" height="53" viewBox="0 0 132 53" fill="none" xmlns="http://www.w3.org/2000/svg">
<path d="M78.9898 21.2C77.8832 21.2 76.8565 21.06 75.9098 20.78C74.9632 20.4867 74.1632 20.0933 73.5098 19.6L74.2898 17.58C74.9432 18.0467 75.6565 18.4067 76.4298 18.66C77.2165 18.9133 78.0698 19.04 78.9898 19.04C80.0432 19.04 80.8098 18.8667 81.2898 18.52C81.7698 18.16 82.0098 17.7 82.0098 17.14C82.0098 16.6733 81.8365 16.3067 81.4898 16.04C81.1565 15.7733 80.5765 15.5533 79.7498 15.38L77.5498 14.92C75.0432 14.3867 73.7898 13.1 73.7898 11.06C73.7898 10.18 74.0232 9.41333 74.4898 8.76C74.9565 8.10667 75.6032 7.6 76.4298 7.24C77.2565 6.88 78.2098 6.7 79.2898 6.7C80.2498 6.7 81.1498 6.84667 81.9898 7.14C82.8298 7.42 83.5298 7.82 84.0898 8.34L83.3098 10.26C82.2032 9.32667 80.8565 8.86 79.2698 8.86C78.3498 8.86 77.6298 9.05333 77.1098 9.44C76.5898 9.82667 76.3298 10.3333 76.3298 10.96C76.3298 11.44 76.4898 11.8267 76.8098 12.12C77.1298 12.4 77.6765 12.62 78.4498 12.78L80.6298 13.24C81.9498 13.52 82.9298 13.96 83.5698 14.56C84.2232 15.16 84.5498 15.96 84.5498 16.96C84.5498 17.8 84.3232 18.54 83.8698 19.18C83.4165 19.82 82.7698 20.32 81.9298 20.68C81.1032 21.0267 80.1232 21.2 78.9898 21.2ZM86.507 21V6.9H89.007V12.64C89.3404 12.1067 89.787 11.7067 90.347 11.44C90.907 11.16 91.527 11.02 92.207 11.02C94.5137 11.02 95.667 12.36 95.667 15.04V21H93.167V15.16C93.167 14.4 93.0204 13.8467 92.727 13.5C92.447 13.1533 92.007 12.98 91.407 12.98C90.6737 12.98 90.087 13.2133 89.647 13.68C89.2204 14.1333 89.007 14.74 89.007 15.5V21H86.507ZM101.606 21.2C100.446 21.2 99.5863 20.8867 99.0263 20.26C98.4796 19.62 98.2063 18.6867 98.2063 17.46V6.9H100.706V17.34C100.706 18.54 101.213 19.14 102.226 19.14C102.373 19.14 102.52 19.1333 102.666 19.12C102.813 19.1067 102.953 19.08 103.086 19.04L103.046 21.02C102.566 21.14 102.086 21.2 101.606 21.2ZM107.813 21.2C107.106 21.2 106.473 21.0667 105.913 20.8C105.366 20.52 104.933 20.1467 104.613 19.68C104.306 19.2133 104.153 18.6867 104.153 18.1C104.153 17.38 104.34 16.8133 104.713 16.4C105.086 15.9733 105.693 15.6667 106.533 15.48C107.373 15.2933 108.5 15.2 109.913 15.2H110.613V14.78C110.613 14.1133 110.466 13.6333 110.173 13.34C109.88 13.0467 109.386 12.9 108.693 12.9C108.146 12.9 107.586 12.9867 107.013 13.16C106.44 13.32 105.86 13.5733 105.273 13.92L104.553 12.22C104.9 11.98 105.306 11.7733 105.773 11.6C106.253 11.4133 106.753 11.2733 107.273 11.18C107.806 11.0733 108.306 11.02 108.773 11.02C110.2 11.02 111.26 11.3533 111.953 12.02C112.646 12.6733 112.993 13.6933 112.993 15.08V21H110.653V19.44C110.426 19.9867 110.066 20.42 109.573 20.74C109.08 21.0467 108.493 21.2 107.813 21.2ZM108.333 19.48C108.986 19.48 109.526 19.2533 109.953 18.8C110.393 18.3467 110.613 17.7733 110.613 17.08V16.64H109.933C108.68 16.64 107.806 16.74 107.313 16.94C106.833 17.1267 106.593 17.4733 106.593 17.98C106.593 18.42 106.746 18.78 107.053 19.06C107.36 19.34 107.786 19.48 108.333 19.48ZM118.133 21L114.273 11.22H116.833L119.333 18.1L121.853 11.22H123.613L126.133 18.14L128.633 11.22H131.053L127.213 21H125.033L122.653 14.7L120.313 21H118.133ZM73.6698 47V44.22H76.4698V47H73.6698ZM78.8508 47V37.22H81.2908V38.94C81.7708 37.78 82.7974 37.14 84.3708 37.02L85.1308 36.96L85.2908 39.08L83.8508 39.22C82.2108 39.38 81.3908 40.22 81.3908 41.74V47H78.8508ZM90.2228 47.2C87.8228 47.2 86.6228 45.8533 86.6228 43.16V37.22H89.1228V43.2C89.1228 43.8933 89.2628 44.4067 89.5428 44.74C89.8228 45.0733 90.2695 45.24 90.8828 45.24C91.5495 45.24 92.0961 45.0133 92.5228 44.56C92.9495 44.0933 93.1628 43.48 93.1628 42.72V37.22H95.6628V47H93.2228V45.54C92.5695 46.6467 91.5695 47.2 90.2228 47.2Z" fill="#1F1F2B"/>
<circle cx="26.5" cy="26.5" r="26.5" fill="#1F1F2B"/>
<path d="M18.55 34.275C17.25 34.275 15.9833 34.1083 14.75 33.775C13.5167 33.425 12.4333 32.8917 11.5 32.175L12.825 29.225C13.8083 29.8917 14.8167 30.3667 15.85 30.65C16.9 30.9167 17.9167 31.05 18.9 31.05C19.9667 31.05 20.7917 30.8583 21.375 30.475C21.975 30.0917 22.275 29.6 22.275 29C22.275 28.5167 22.1 28.1167 21.75 27.8C21.4 27.4833 20.8167 27.2333 20 27.05L17.175 26.375C15.9417 26.0917 14.9583 25.5667 14.225 24.8C13.5083 24.0333 13.15 23.0417 13.15 21.825C13.15 20.625 13.4833 19.6 14.15 18.75C14.8167 17.8833 15.7 17.225 16.8 16.775C17.9 16.325 19.0917 16.1 20.375 16.1C21.475 16.1 22.5833 16.2667 23.7 16.6C24.8333 16.9333 25.85 17.45 26.75 18.15L25.375 20.95C24.6083 20.3667 23.775 19.95 22.875 19.7C21.9917 19.45 21.1417 19.325 20.325 19.325C19.3083 19.325 18.4917 19.525 17.875 19.925C17.275 20.3083 16.975 20.825 16.975 21.475C16.975 21.975 17.1333 22.375 17.45 22.675C17.7833 22.9583 18.275 23.1833 18.925 23.35L21.725 24.025C23.1417 24.3417 24.225 24.9 24.975 25.7C25.725 26.4833 26.1 27.425 26.1 28.525C26.1 29.8083 25.75 30.875 25.05 31.725C24.35 32.575 23.425 33.2167 22.275 33.65C21.125 34.0667 19.8833 34.275 18.55 34.275ZM27.4906 34L30.2906 16.375H34.0656L32.9656 23.425C33.8656 22.125 35.2073 21.475 36.9906 21.475C38.324 21.475 39.3406 21.8917 40.0406 22.725C40.7573 23.5583 40.974 24.8833 40.6906 26.7L39.5406 34H35.7656L36.8906 26.775C37.1573 25.1917 36.649 24.4 35.3656 24.4C34.5156 24.4 33.8323 24.675 33.3156 25.225C32.799 25.7583 32.4656 26.5 32.3156 27.45L31.2656 34H27.4906Z" fill="white"/>
</svg>
