<svg width="121" height="53" viewBox="0 0 121 53" fill="none" xmlns="http://www.w3.org/2000/svg">
<path d="M77.2898 21.2C76.1298 21.2 75.2698 20.8867 74.7098 20.26C74.1632 19.62 73.8898 18.6867 73.8898 17.46V6.9H76.3898V17.34C76.3898 18.54 76.8965 19.14 77.9098 19.14C78.0565 19.14 78.2032 19.1333 78.3498 19.12C78.4965 19.1067 78.6365 19.08 78.7698 19.04L78.7298 21.02C78.2498 21.14 77.7698 21.2 77.2898 21.2ZM80.2766 24.6V11.22H82.7166V12.78C82.9966 12.2467 83.4166 11.82 83.9766 11.5C84.5499 11.18 85.1966 11.02 85.9166 11.02C86.7699 11.02 87.5166 11.2267 88.1566 11.64C88.8099 12.0533 89.3166 12.64 89.6766 13.4C90.0366 14.1467 90.2166 15.0467 90.2166 16.1C90.2166 17.14 90.0366 18.0467 89.6766 18.82C89.3166 19.58 88.8166 20.1667 88.1766 20.58C87.5366 20.9933 86.7832 21.2 85.9166 21.2C85.2232 21.2 84.5966 21.0533 84.0366 20.76C83.4899 20.4533 83.0699 20.0467 82.7766 19.54V24.6H80.2766ZM85.2166 19.3C85.9632 19.3 86.5632 19.0333 87.0166 18.5C87.4699 17.9533 87.6966 17.1533 87.6966 16.1C87.6966 15.0333 87.4699 14.24 87.0166 13.72C86.5632 13.1867 85.9632 12.92 85.2166 12.92C84.4699 12.92 83.8699 13.1867 83.4166 13.72C82.9632 14.24 82.7366 15.0333 82.7366 16.1C82.7366 17.1533 82.9632 17.9533 83.4166 18.5C83.8699 19.0333 84.4699 19.3 85.2166 19.3ZM97.0888 21.2C95.9821 21.2 95.0288 20.9933 94.2288 20.58C93.4288 20.1667 92.8088 19.58 92.3688 18.82C91.9421 18.06 91.7288 17.16 91.7288 16.12C91.7288 15.1067 91.9354 14.22 92.3488 13.46C92.7754 12.7 93.3554 12.1067 94.0888 11.68C94.8354 11.24 95.6821 11.02 96.6288 11.02C98.0154 11.02 99.1088 11.46 99.9088 12.34C100.722 13.22 101.129 14.42 101.129 15.94V16.68H94.1288C94.3154 18.4267 95.3154 19.3 97.1288 19.3C97.6754 19.3 98.2221 19.22 98.7688 19.06C99.3154 18.8867 99.8154 18.62 100.269 18.26L100.969 19.94C100.502 20.3267 99.9154 20.6333 99.2088 20.86C98.5021 21.0867 97.7954 21.2 97.0888 21.2ZM96.7288 12.72C95.9954 12.72 95.4021 12.9467 94.9488 13.4C94.4954 13.8533 94.2221 14.4667 94.1288 15.24H99.0488C98.9954 14.4267 98.7688 13.8067 98.3688 13.38C97.9821 12.94 97.4354 12.72 96.7288 12.72ZM107.929 21.2C106.822 21.2 105.869 20.9933 105.069 20.58C104.269 20.1667 103.649 19.58 103.209 18.82C102.782 18.06 102.569 17.16 102.569 16.12C102.569 15.1067 102.775 14.22 103.189 13.46C103.615 12.7 104.195 12.1067 104.929 11.68C105.675 11.24 106.522 11.02 107.469 11.02C108.855 11.02 109.949 11.46 110.749 12.34C111.562 13.22 111.969 14.42 111.969 15.94V16.68H104.969C105.155 18.4267 106.155 19.3 107.969 19.3C108.515 19.3 109.062 19.22 109.609 19.06C110.155 18.8867 110.655 18.62 111.109 18.26L111.809 19.94C111.342 20.3267 110.755 20.6333 110.049 20.86C109.342 21.0867 108.635 21.2 107.929 21.2ZM107.569 12.72C106.835 12.72 106.242 12.9467 105.789 13.4C105.335 13.8533 105.062 14.4667 104.969 15.24H109.889C109.835 14.4267 109.609 13.8067 109.209 13.38C108.822 12.94 108.275 12.72 107.569 12.72ZM113.948 21V11.22H116.388V12.94C116.868 11.78 117.895 11.14 119.468 11.02L120.228 10.96L120.388 13.08L118.948 13.22C117.308 13.38 116.488 14.22 116.488 15.74V21H113.948ZM73.6698 47V44.22H76.4698V47H73.6698ZM78.8508 47V37.22H81.2908V38.94C81.7708 37.78 82.7974 37.14 84.3708 37.02L85.1308 36.96L85.2908 39.08L83.8508 39.22C82.2108 39.38 81.3908 40.22 81.3908 41.74V47H78.8508ZM90.2228 47.2C87.8228 47.2 86.6228 45.8533 86.6228 43.16V37.22H89.1228V43.2C89.1228 43.8933 89.2628 44.4067 89.5428 44.74C89.8228 45.0733 90.2695 45.24 90.8828 45.24C91.5495 45.24 92.0961 45.0133 92.5228 44.56C92.9495 44.0933 93.1628 43.48 93.1628 42.72V37.22H95.6628V47H93.2228V45.54C92.5695 46.6467 91.5695 47.2 90.2228 47.2Z" fill="#1F1F2B"/>
<circle cx="26.5" cy="26.5" r="26.5" fill="#1F1F2B"/>
<path d="M11.8 34L14.6 16.375H18.475L16.2 30.725H24.35L23.825 34H11.8ZM25.1061 38.5L27.7561 21.725H31.4561L31.1811 23.525C31.6311 22.875 32.1977 22.375 32.8811 22.025C33.5811 21.6583 34.3561 21.475 35.2061 21.475C36.5894 21.475 37.6977 21.95 38.5311 22.9C39.3644 23.85 39.7811 25.1417 39.7811 26.775C39.7811 28.1917 39.5311 29.4667 39.0311 30.6C38.5311 31.7333 37.8144 32.6333 36.8811 33.3C35.9644 33.95 34.8727 34.275 33.6061 34.275C32.7727 34.275 32.0227 34.1 31.3561 33.75C30.7061 33.3833 30.2144 32.8583 29.8811 32.175L28.8811 38.5H25.1061ZM32.8311 31.45C33.8311 31.45 34.6061 31.025 35.1561 30.175C35.7061 29.325 35.9811 28.2583 35.9811 26.975C35.9811 26.1083 35.7727 25.45 35.3561 25C34.9561 24.5333 34.3977 24.3 33.6811 24.3C32.6811 24.3 31.9061 24.725 31.3561 25.575C30.8061 26.425 30.5311 27.4833 30.5311 28.75C30.5311 29.6167 30.7311 30.2833 31.1311 30.75C31.5477 31.2167 32.1144 31.45 32.8311 31.45Z" fill="white"/>
</svg>
